<?xml version="1.0" encoding="UTF-8"?><svg id="Layer_2" xmlns="http://www.w3.org/2000/svg" viewBox="0 0 256.41 132.1"><defs><style>.cls-1{stroke:#000;stroke-miterlimit:10;stroke-width:3px;}.cls-2{stroke-width:0px;}</style></defs><g id="Layer_1-2"><path class="cls-1" d="m165.02,73c2.68-.1,4.63-1.5,6.51-3.12.08.13.14.21.19.31.51,1.02.53,1.03-.26,1.83-1.63,1.64-3.49,2.89-5.83,3.29-2.42.41-3.58-.62-3.29-3.05.35-2.93.78-5.85,1.21-8.77.48-3.25,1-6.48,1.49-9.73.03-.23-.07-.48-.12-.72-.08,0-.17,0-.25.01-.13.43-.27.87-.4,1.3-1.47,4.77-2.84,9.58-4.94,14.13-.68,1.47-1.51,2.89-2.45,4.21-2.44,3.41-6.51,3.39-9.08,2.41-2.27-.87-3.16-2.81-3.61-5.02-.54-2.62-.43-5.26-.13-7.9.39-3.44,1.23-6.75,2.86-9.83,1.64-3.12,3.87-5.65,7.33-6.77,3.38-1.09,6.68-.89,9.81.95.28.17.53.39.92.67.45-4.68.9-9.28,1.35-13.95-1.54-.1-3.01-.2-4.57-.3.05-.42.07-.81.15-1.18.03-.12.22-.27.35-.3,1.98-.32,3.95-.63,5.94-.91.64-.09,1.31.63,1.25,1.26-.37,3.5-.74,7.01-1.12,10.51-.46,4.31-.93,8.63-1.39,12.94-.47,4.34-.93,8.67-1.4,13.01-.16,1.53-.32,3.06-.5,4.71Zm-.45-24.21c-3.02-1.66-6.12-2.23-9.44-1.55-1.2.25-2.21.74-2.9,1.76-.77,1.12-1.62,2.21-2.22,3.43-2.42,4.92-3.16,10.18-2.88,15.6.05,1.04.29,2.1.62,3.09.53,1.59,1.68,2.37,3.35,2.37.79,0,1.58-.1,2.36-.23.31-.05.68-.25.86-.49.75-1.03,1.53-2.05,2.14-3.17,3.54-6.58,5.63-13.73,8.11-20.81Z"/><path class="cls-1" d="m196.9,47.3c.06-.57.1-1.11.16-1.65.02-.14.03-.33.13-.41.45-.42,2.18-.34,2.6.14.11.12.15.35.13.53-.85,8.12-1.71,16.25-2.56,24.37-.09.87-.17,1.75-.27,2.72,2.62-.07,4.55-1.49,6.47-3.14.19.39.38.73.51,1.09.05.13.01.35-.07.45-1.75,2.01-3.83,3.5-6.53,3.93-.04,0-.09.01-.13.02-2.21.22-3.23-.74-2.99-2.94.26-2.34.6-4.67.95-7,.57-3.88,1.18-7.75,1.76-11.62.04-.24-.06-.5-.09-.75-.08,0-.17,0-.25,0-.1.28-.2.56-.29.85-1.44,4.71-2.79,9.46-4.8,13.97-.74,1.66-1.63,3.28-2.67,4.76-2.36,3.39-6.28,3.51-9.04,2.53-2.34-.84-3.29-2.82-3.71-5.08-.71-3.83-.36-7.64.48-11.41.75-3.39,2.01-6.56,4.22-9.29,4.09-5.08,10.42-5.25,14.35-3.19.57.3,1.08.73,1.66,1.13Zm-7.32-.36c-.39.04-1,.09-1.61.15-1.79.16-3.23.94-4.2,2.48-.64,1.02-1.35,2.02-1.87,3.1-2.3,4.84-3.02,10-2.76,15.3.05,1.08.3,2.19.65,3.22.5,1.52,1.69,2.28,3.28,2.29.74,0,1.49-.13,2.23-.17.53-.03.92-.28,1.19-.71,1.02-1.66,2.18-3.26,3.03-5.02,2.83-5.86,4.75-12.06,6.85-18.2.14-.4-.02-.55-.32-.72-1.93-1.11-4-1.71-6.45-1.73Z"/><path class="cls-2" d="m40.09,21.68c-2.11.25-4.19.51-6.38.77-.03-.52-.11-.97-.07-1.41.01-.17.24-.4.42-.48,2.71-1.07,5.51-1.79,8.39-2.22.74-.11,1.57.79,1.46,1.53-1.01,6.79-2.09,13.58-2.99,20.38-.39,2.92-.51,5.89-.54,8.84-.01,1.84.76,3.44,2.73,4.06,1.73.54,3.47.33,5.2-.01.25-.05.49-.32.67-.54,2.29-2.74,3.81-5.93,5.16-9.2,2.96-7.19,5.14-14.65,7.4-22.08.14-.47.36-.93.41-1.42.11-1.02.75-1.41,1.65-1.42.71,0,1.47-.52,2.11.12.23.23.46.62.44.91-.38,4.06-.8,8.12-1.22,12.17-.52,5.06-1.05,10.13-1.58,15.19-.2,1.93-.4,3.86-.61,5.93,3.27-.08,5.63-1.89,7.97-3.9.23.47.49.89.65,1.34.06.18,0,.49-.14.64-2.11,2.45-4.64,4.24-7.9,4.79-.48.08-.98.09-1.47.06-1.65-.12-2.65-1.05-2.56-2.7.13-2.48.39-4.96.73-7.43.86-6.26,1.78-12.51,2.68-18.77.02-.14.06-.28.03-.41-.05-.2-.15-.39-.23-.58-.17.16-.42.29-.48.49-.77,2.57-1.49,5.15-2.27,7.71-1.5,4.94-2.96,9.91-5.28,14.56-.73,1.46-1.59,2.89-2.61,4.16-2.63,3.3-7.6,4.34-11.4,2.5-2.42-1.17-3.59-3.27-3.67-5.8-.09-2.72.03-5.48.39-8.18.87-6.51,1.92-12.99,2.92-19.6Z"/><path class="cls-2" d="m104.18,52.81c1.65.02,3.07-.46,4.36-1.25,1.25-.76,2.43-1.66,3.65-2.51,0,0,.07.02.09.06q.82,1.52-.41,2.73c-1.95,1.91-4.16,3.38-6.92,3.83-.46.07-.93.1-1.39.08-1.92-.07-3.03-1.1-2.88-3.01.23-2.86.65-5.71,1.06-8.55.75-5.28,1.61-10.55,2.27-15.84.2-1.57.04-3.23-.26-4.8-.36-1.9-1.82-2.83-3.68-2.93-1.28-.07-2.57.07-3.84.2-.3.03-.63.31-.84.56-1.9,2.2-3.25,4.73-4.44,7.35-2.86,6.32-4.86,12.95-6.87,19.57-.63,2.07-1.24,4.14-1.81,6.22-.14.52-.39.81-.91.88-.62.08-1.24.2-1.87.24-.76.05-1.31-.58-1.23-1.32.74-7.22,1.48-14.43,2.22-21.65.35-3.43.72-6.86,1.08-10.29.02-.19.02-.38.04-.7-2.13.26-4.2.51-6.39.77-.03-.5-.09-.96-.05-1.4.02-.18.23-.42.42-.49,2.71-1.07,5.51-1.79,8.39-2.22.67-.1,1.54.86,1.45,1.58-.63,4.75-1.27,9.49-1.91,14.24-.6,4.48-1.21,8.95-1.8,13.43-.03.21.19.44.3.67.09-.02.18-.05.27-.07.43-1.49.86-2.98,1.3-4.47,1.62-5.48,3.15-11,5.46-16.24.91-2.06,2-4.1,3.33-5.91,2.58-3.53,7.35-4.64,11.37-2.88,2.66,1.17,3.91,3.4,3.96,6.13.05,2.8-.18,5.64-.56,8.42-.88,6.4-1.92,12.77-2.9,19.15-.02.1-.02.21-.03.41Z"/><path class="cls-2" d="m112.08,52.95c-2.16.26-4.22.52-6.39.78-.03-.5-.09-.96-.05-1.4.02-.18.23-.42.41-.49,2.71-1.07,5.51-1.79,8.39-2.22.67-.1,1.54.86,1.45,1.58-.63,4.75-1.27,9.49-1.91,14.24-.6,4.48-1.21,8.95-1.8,13.43-.03.2.19.44.3.66.09-.02.18-.05.28-.07.43-1.49.86-2.98,1.3-4.46,1.62-5.48,3.15-11,5.46-16.24.91-2.06,2-4.1,3.33-5.91,2.58-3.53,7.35-4.64,11.37-2.88,2.66,1.17,3.91,3.4,3.96,6.13.05,2.8-.18,5.64-.56,8.42-.88,6.4-1.92,12.77-2.9,19.15-.02.11-.02.21-.03.41,1.58.05,3-.43,4.29-1.2,1.28-.77,2.48-1.68,3.73-2.54,0,0,.06.01.09.05q.82,1.52-.41,2.73c-1.95,1.91-4.16,3.38-6.92,3.83-.46.07-.93.1-1.39.08-1.93-.07-3.03-1.1-2.88-3.01.23-2.86.65-5.71,1.05-8.55.75-5.28,1.61-10.55,2.27-15.84.2-1.57.06-3.24-.27-4.79-.4-1.9-1.78-2.88-3.76-2.95-1.25-.05-2.51.08-3.76.21-.3.03-.63.31-.84.56-1.9,2.2-3.25,4.73-4.44,7.35-2.86,6.32-4.86,12.95-6.87,19.57-.63,2.07-1.24,4.14-1.81,6.22-.14.52-.39.81-.91.88-.62.08-1.24.2-1.87.24-.76.05-1.31-.58-1.23-1.32.74-7.22,1.48-14.43,2.22-21.65.35-3.43.72-6.86,1.08-10.29.02-.19.02-.38.04-.71Z"/><path class="cls-2" d="m19.11,22.8c-1.99-.13-3.89-.26-5.82-.39v-1.99c1.99-.29,3.98-.58,5.96-.87.29-1.86.52-3.7.88-5.52.7-3.5,1.85-6.81,4.17-9.61,3.3-3.97,9.51-5.59,14.01-3.52,1.1.51,1.99,1.48,2.97,2.25.34.27.36.61.15,1.02-.31.6-.57,1.24-.88,1.93-1.08-.38-2.13-.75-3.17-1.13-1.62-.58-3.23-1.21-4.87-1.73-.59-.19-1.27-.13-1.91-.15-.21,0-.42.1-.64.14-2.01.39-3.3,1.52-4.11,3.44-1.39,3.3-2.04,6.74-2.44,10.26-.11.97-.19,1.95-.29,3.02h9.31c-.13.83-.2,1.56-.39,2.26-.05.18-.49.35-.75.36-2.47.03-4.93.02-7.4.02-.3,0-.59,0-.97,0-.17,1.92-.34,3.79-.5,5.67-.54,6.3-1.05,12.61-1.61,18.91-.35,3.95-.73,7.9-1.21,11.84-.3,2.45-.95,4.83-2.07,7.05-1.61,3.22-4.21,4.81-7.81,4.67-3.36-.12-6.38-1.18-8.95-3.41-.99-.86-.98-.87-.4-2.01.13-.26.28-.52.37-.69,1.86.78,3.65,1.6,5.49,2.27,2.1.76,4.3,1.05,6.53,1.06.5,0,.8-.17,1.06-.59,1.2-1.93,1.74-4.09,1.99-6.29.51-4.65.92-9.32,1.32-13.98.5-5.84.95-11.68,1.42-17.52.18-2.21.35-4.42.53-6.74Z"/><path class="cls-2" d="m135.47,126.71c2.5,1.32,5.1,2.23,7.88,2.51.55.06,1.21-.05,1.69-.32,4.1-2.25,7.44-5.38,10.22-9.11.2-.27.22-.78.14-1.13-1.54-6.83-3.06-13.67-4.7-20.47-1.16-4.81-2.51-9.58-3.77-14.36-.06-.23-.15-.46-.24-.77-2.14.26-4.25.51-6.47.78-.02-.54-.08-1.02-.05-1.49.01-.15.23-.35.4-.42,2.4-1.01,4.86-1.84,7.46-2.19.72-.1,1.68.51,1.88,1.23,3.05,11.05,6.03,22.11,7.96,33.43.1.56.17,1.13.29,1.9.32-.24.6-.36.73-.56,5.24-7.9,9.49-16.24,11.63-25.55.31-1.34.21-2.41-.7-3.54-1.4-1.75-2.6-3.65-3.93-5.57.7-.53,1.34-1.08,2.04-1.53.21-.14.63-.09.9.02,2.73,1.06,4.17,3.18,4.68,5.97.53,2.88-.04,5.7-.9,8.41-3.94,12.4-10.38,23.31-19.84,32.32-2.47,2.35-5.21,4.37-8.53,5.4-3.53,1.1-6.5,0-9.1-2.45-.48-.45-.65-.88-.24-1.47.21-.31.35-.67.54-1.04Z"/><path class="cls-1" d="m201.75,83.06c2,1.05,4.07,1.79,6.28,2.01.47.05,1.02-.03,1.43-.25,3.3-1.81,5.98-4.33,8.22-7.33.15-.2.18-.58.12-.85-1.33-5.84-2.63-11.68-4.03-17.5-.86-3.57-1.87-7.11-2.81-10.66-.04-.17-.11-.33-.19-.54-1.71.21-3.41.41-5.25.63,0-.42-.03-.79.02-1.15.02-.15.19-.33.33-.4,1.93-.81,3.91-1.48,6-1.76.61-.08,1.36.42,1.53,1.06,1.39,5.34,2.86,10.67,4.14,16.04.94,3.94,1.62,7.93,2.41,11.9.02.08.05.16.11.38.22-.17.44-.27.55-.43,4.21-6.35,7.63-13.06,9.35-20.56.25-1.08.15-1.94-.57-2.85-1.12-1.41-2.09-2.94-3.16-4.47.57-.43,1.08-.87,1.65-1.23.17-.11.51-.06.73.02,2.2.86,3.35,2.56,3.76,4.81.43,2.32-.03,4.59-.73,6.77-3.16,9.96-8.33,18.71-15.91,25.96-2,1.91-4.22,3.55-6.92,4.39-2.84.88-5.23-.01-7.32-1.98-.39-.37-.5-.72-.18-1.19.17-.25.28-.54.43-.83Z"/><path class="cls-1" d="m78.16,62.18c-1.7.2-3.37.41-5.13.62-.03-.41-.09-.78-.06-1.14.01-.14.19-.32.34-.38,2.18-.86,4.43-1.44,6.75-1.79.6-.09,1.27.64,1.18,1.23-.81,5.47-1.68,10.92-2.41,16.4-.31,2.35-.41,4.74-.43,7.11-.01,1.48.61,2.77,2.2,3.27,1.39.44,2.79.27,4.18-.01.2-.04.39-.26.54-.44,1.84-2.21,3.07-4.77,4.15-7.4,2.38-5.79,4.13-11.79,5.95-17.76.12-.38.29-.75.33-1.14.09-.82.6-1.13,1.33-1.14.57,0,1.18-.42,1.7.09.18.18.37.5.35.73-.31,3.27-.65,6.53-.98,9.79-.42,4.07-.85,8.15-1.27,12.22-.16,1.55-.32,3.11-.49,4.77,2.63-.07,4.53-1.52,6.41-3.14.19.38.39.72.52,1.08.05.15,0,.4-.11.52-1.7,1.97-3.73,3.41-6.36,3.85-.39.07-.79.07-1.18.05-1.33-.09-2.13-.84-2.06-2.17.11-2,.32-3.99.59-5.98.69-5.04,1.43-10.07,2.16-15.1.02-.11.05-.23.03-.33-.04-.16-.12-.31-.18-.47-.13.13-.34.24-.39.39-.62,2.06-1.2,4.14-1.83,6.2-1.21,3.98-2.38,7.97-4.24,11.71-.58,1.17-1.28,2.32-2.1,3.35-2.12,2.65-6.11,3.49-9.17,2.01-1.95-.94-2.89-2.63-2.96-4.67-.07-2.19.03-4.41.32-6.58.7-5.23,1.55-10.45,2.35-15.77Z"/><path class="cls-1" d="m67.29,64.63c-2-1.11-3.87-2.17-5.77-3.19-.33-.18-.74-.28-1.12-.26-.61.02-1.23.12-1.82.26-1.98.45-3.1,1.71-3.35,3.73-.22,1.75.13,3.36,1.4,4.64,1.28,1.3,2.67,2.49,3.98,3.77,1.44,1.42,2.97,2.78,4.23,4.35,1.98,2.46,2.28,5.23.81,8.09-.63,1.23-1.65,2.13-2.89,2.71-3.18,1.49-6.42,1.58-9.66.2-1.4-.59-2.48-1.58-3.1-3.01-.14-.33-.17-.6.11-.89.41-.43.77-.9,1.18-1.39,1.59,1.06,3.26,1.99,4.71,3.19,1.55,1.29,3.09,1.2,4.85.71,1.43-.39,2.22-1.29,2.57-2.63.5-1.91.31-3.78-.98-5.31-1.22-1.44-2.61-2.73-3.96-4.06-1.45-1.42-3.04-2.7-4.37-4.21-2.54-2.89-2.41-7,.16-9.58,1.36-1.36,3.05-2.07,4.92-2.36,2.54-.41,5.01-.25,7.29,1.09.02.01.04.02.06.03.84.53,1.71,1.2,1.82,2.15.07.59-.64,1.27-1.04,1.97Z"/><path class="cls-1" d="m237.84,69.4c2.03,1.35,4.01,2.7,6.03,3.99.33.21.82.33,1.21.29.83-.08,1.64-.27,2.46-.44,1.2-.25,1.92-1.05,2.29-2.15.68-2.03.55-4.02-.83-5.69-1.21-1.47-2.64-2.77-4-4.11-1.44-1.42-3.04-2.7-4.37-4.22-2.54-2.91-2.39-7.09.24-9.62,1.74-1.68,3.91-2.32,6.25-2.46,2.08-.12,4.12.1,5.89,1.3.7.48,1.24,1.22,1.81,1.87.11.13.11.48.02.64-.3.53-.67,1.02-1.05,1.58-1.82-1.01-3.62-1.97-5.37-3.01-.67-.4-1.34-.51-2.08-.39-.54.09-1.07.23-1.61.34-1.33.26-2.13,1.13-2.57,2.32-.78,2.07-.61,4.05.87,5.76.86.99,1.87,1.86,2.82,2.78,1.69,1.64,3.46,3.21,5.07,4.92,1.48,1.57,2.28,3.48,2.13,5.71-.17,2.63-1.44,4.58-3.78,5.71-3.13,1.52-6.37,1.57-9.59.21-1.36-.57-2.41-1.52-3.07-2.87-.21-.44-.26-.79.14-1.17.39-.38.72-.83,1.09-1.27Z"/></g></svg>